Patient4_TMGait_0pt6_01_left_24_GRF.mot
version=1
nRows=32
nColumns=19
inDegrees=no
endheader
time	F1x	F1y	F1z	M1x	M1y	M1z	F2x	F2y	F2z	M2x	M2y	M2z	EC1x	EC1y	EC1z	EC2x	EC2y	EC2z
29.19	13.8206	6.9805	-0.78882	-2.7039	3.4582	9.8113	-15.8386	745.149	-43.6121	284.6882	42.8092	662.9988	-0.0592	0.0182	-0.0073	-0.0462	0.0165	0.9585
29.2023	9.1562	5.505	-0.50473	-2.1125	2.2282	7.4453	-13.4806	736.7053	-45.3176	281.7453	43.3164	651.9935	-0.0592	0.0182	-0.0073	-0.0462	0.0165	0.9585
29.2146	5.2245	4.2675	-0.26996	-1.6238	1.1965	5.4442	-10.788	729.6999	-46.5991	279.1969	43.2726	641.8107	-0.0592	0.0182	-0.0073	-0.0462	0.0165	0.9585
29.2269	2.2398	3.3483	-0.084705	-1.2664	0.40282	3.9366	-7.8655	725.3501	-47.4002	277.4817	42.672	633.6509	-0.0592	0.0182	-0.0073	-0.0462	0.0165	0.9585
29.2391	0.17133	2.7502	0.04287	-1.0391	-0.14819	2.9284	-4.809	724.4445	-47.7919	276.9098	41.6233	628.2865	-0.0592	0.0182	-0.0073	-0.0462	0.0165	0.9585
29.2514	-1.1252	2.4327	0.13191	-0.92266	-0.5032	2.3605	-1.7192	727.268	-47.9297	277.6101	40.3092	626.0319	-0.0592	0.0182	-0.0073	-0.0462	0.0165	0.9585
29.2637	-1.8555	2.3136	0.18126	-0.88526	-0.70299	2.1192	1.3288	733.5471	-47.9668	279.5021	38.8986	626.6886	-0.0592	0.0182	-0.0073	-0.0462	0.0165	0.9585
29.276	-2.205	2.3034	0.21473	-0.89013	-0.81159	2.0628	4.2716	742.5351	-48.0501	282.3174	37.5445	629.6596	-0.0592	0.0182	-0.0073	-0.0462	0.0165	0.9585
29.2883	-2.3348	2.3078	0.23321	-0.8987	-0.86965	2.0639	7.0757	753.0811	-48.2745	285.6337	36.3378	633.9955	-0.0592	0.0182	-0.0073	-0.0462	0.0165	0.9585
29.3006	-2.3555	2.2228	0.25631	-0.86932	-0.92549	1.9903	9.7025	763.8275	-48.6947	288.9451	35.3372	638.6048	-0.0592	0.0182	-0.0073	-0.0462	0.0165	0.9585
29.3129	-2.3627	1.9577	0.2859	-0.76459	-1.0033	1.7376	12.1574	773.3872	-49.314	291.7328	34.5491	642.3746	-0.0592	0.0182	-0.0073	-0.0462	0.0165	0.9585
29.3251	-2.3835	1.4098	0.33801	-0.54387	-1.1209	1.1945	14.4239	780.5518	-50.0927	293.5458	33.9498	644.354	-0.0592	0.0182	-0.0073	-0.0462	0.0165	0.9585
29.3374	-2.4265	0.48787	0.41078	-0.17151	-1.264	0.26442	16.5123	784.4443	-50.9671	294.0665	33.4899	643.8534	-0.0592	0.0182	-0.0073	-0.0462	0.0165	0.9585
29.3497	-2.4447	-0.87018	0.49786	0.37753	-1.402	-1.1325	18.4007	784.6678	-51.8465	293.1644	33.1077	640.5891	-0.0592	0.0182	-0.0073	-0.0462	0.0165	0.9585
29.362	-2.3559	-2.6628	0.57202	1.1027	-1.4713	-2.9917	20.0675	781.3056	-52.6463	290.8953	32.7514	634.6561	-0.0592	0.0182	-0.0073	-0.0462	0.0165	0.9585
29.3743	-2.019	-4.781	0.59262	1.9579	-1.3758	-5.1979	21.4824	774.8491	-53.3221	287.4683	32.4053	626.4602	-0.0592	0.0182	-0.0073	-0.0462	0.0165	0.9585
29.3866	-1.27	-6.9506	0.51024	2.8267	-0.99658	-7.4569	22.6292	766.0779	-53.8785	283.2016	32.0853	616.6175	-0.0592	0.0182	-0.0073	-0.0462	0.0165	0.9585
29.3989	0.10355	-8.6367	0.26376	3.4888	-0.18827	-9.22	23.5487	755.9296	-54.3646	278.4709	31.821	605.851	-0.0592	0.0182	-0.0073	-0.0462	0.0165	0.9585
29.4111	2.3029	-8.9697	-0.2163	3.5917	1.2023	-9.5987	24.3272	745.3527	-54.8389	273.6508	31.6268	594.8797	-0.0592	0.0182	-0.0073	-0.0462	0.0165	0.9585
29.4234	5.4735	-6.6823	-1.0093	2.6261	3.3152	-7.2862	25.1257	735.1149	-55.3542	269.044	31.4874	584.2469	-0.0592	0.0182	-0.0073	-0.0462	0.0165	0.9585
29.4357	9.6247	-0.11555	-2.1708	-0.073378	6.2123	-0.54551	26.1187	725.6808	-55.9313	264.8334	31.3488	574.2599	-0.0592	0.0182	-0.0073	-0.0462	0.0165	0.9585
29.448	14.5125	12.6929	-3.7152	-5.2957	9.8058	12.6838	27.4918	717.0795	-56.5479	261.039	31.1189	564.8809	-0.0592	0.0182	-0.0073	-0.0462	0.0165	0.9585
29.4603	19.4771	33.7362	-5.5561	-13.8413	13.7397	34.5037	29.3444	708.8792	-57.1107	257.5082	30.6833	555.76	-0.0592	0.0182	-0.0073	-0.0462	0.0165	0.9585
29.4726	23.2913	64.5723	-7.4745	-26.3286	17.2852	66.5787	31.6929	700.1608	-57.4484	253.9111	29.9103	546.1912	-0.0592	0.0182	-0.0073	-0.0462	0.0165	0.9585
29.4849	24.0856	105.6775	-9.0364	-42.9299	19.2412	109.4769	34.4183	689.6391	-57.3168	249.7824	28.6649	535.2396	-0.0592	0.0182	-0.0073	-0.0462	0.0165	0.9585
29.4971	20.0843	156.2328	-9.6626	-63.2851	18.3023	162.4357	37.3148	675.786	-56.4487	244.5713	26.8377	521.8161	-0.0592	0.0182	-0.0073	-0.0462	0.0165	0.9585
29.5094	11.2832	214.7819	-8.7949	-86.7446	13.8781	223.9747	40.0944	657.0484	-54.6105	237.7134	24.3792	504.8525	-0.0592	0.0182	-0.0073	-0.0462	0.0165	0.9585
29.5217	-0.71987	278.3783	-5.9162	-112.0425	6.0449	290.8964	42.467	631.95	-51.6598	228.6647	21.3087	483.3311	-0.0592	0.0182	-0.0073	-0.0462	0.0165	0.9585
29.534	-14.0284	341.5815	-0.36588	-136.9699	-5.0789	357.2097	44.1605	599.2134	-47.6029	216.9442	17.7456	456.3681	-0.0592	0.0182	-0.0073	-0.0462	0.0165	0.9585
29.5463	-26.6749	399.3181	7.3125	-159.5413	-18.0872	417.249	44.9442	558.0823	-42.567	202.2486	13.8783	423.4447	-0.0592	0.0182	-0.0073	-0.0462	0.0165	0.9585
29.5586	-37.4108	449.3966	15.9449	-178.951	-31.2001	468.5275	44.5926	508.6648	-36.8097	184.5775	9.9726	384.6783	-0.0592	0.0182	-0.0073	-0.0462	0.0165	0.9585
29.5709	-45.6786	492.1745	24.3515	-195.4272	-42.962	511.3077	42.9368	452.0386	-30.7037	164.2779	6.3446	340.8996	-0.0592	0.0182	-0.0073	-0.0462	0.0165	0.9585
